HIERARCHY
ROOT Hips
{
  OFFSET -68.0389 97.395 -23.6479
  CHANNELS 6 Xposition Yposition Zposition Zrotation Xrotation Yrotation
  JOINT RightUpLeg
  {
    OFFSET -8.9458 -8.66707 0.101652
    CHANNELS 3 Zrotation Xrotation Yrotation
    JOINT RightLeg
    {
      OFFSET 0 -44.4227 1.3727
      CHANNELS 3 Zrotation Xrotation Yrotation
      JOINT RightFoot
      {
        OFFSET 0.253549 -42.0924 -1.46059
        CHANNELS 3 Zrotation Xrotation Yrotation
        JOINT RightToes
        {
          OFFSET 0.04 -4.41509 8.4991
          CHANNELS 3 Zrotation Xrotation Yrotation
          End Site
          {
            OFFSET -0.08 -0.137448 9.77979
          }
        }
      }
    }
  }
  JOINT Spine
  {
    OFFSET 0 11.8905 0
    CHANNELS 3 Zrotation Xrotation Yrotation
    JOINT Spine1
    {
      OFFSET 0 25.6574 0.127663
      CHANNELS 3 Zrotation Xrotation Yrotation
      JOINT HEad
      {
        OFFSET 0 8.73416 0.011341
        CHANNELS 3 Zrotation Xrotation Yrotation
        End Site
        {
          OFFSET -0.29 12.7742 2.51395
        }
      }
      JOINT LeftShoulder1
      {
        OFFSET 8.99 -0.362252 -0.22
        CHANNELS 3 Zrotation Xrotation Yrotation
        JOINT LeftArm
        {
          OFFSET 10.2827 -0.00338 0.322123
          CHANNELS 3 Zrotation Xrotation Yrotation
          JOINT LeftForeArm
          {
            OFFSET 32.7669 0.099144 -1.42434
            CHANNELS 3 Zrotation Xrotation Yrotation
            JOINT LeftHand
            {
              OFFSET 27.5643 0.085362 1.02216
              CHANNELS 3 Zrotation Xrotation Yrotation
              End Site
              {
                OFFSET 16.7443 -0.6 1.50291
              }
            }
          }
        }
      }
      JOINT RightShoulder
      {
        OFFSET -8.99 -0.362252 -0.22
        CHANNELS 3 Zrotation Xrotation Yrotation
        JOINT RightArm
        {
          OFFSET -10.2827 -0.00338 0.322123
          CHANNELS 3 Zrotation Xrotation Yrotation
          JOINT RightForeArm
          {
            OFFSET -32.8971 0.099144 -1.42434
            CHANNELS 3 Zrotation Xrotation Yrotation
            JOINT RightHand
            {
              OFFSET -32.6256 0.814023 -6.80285
              CHANNELS 3 Zrotation Xrotation Yrotation
              End Site
              {
                OFFSET -16.6312 -0.6 1.50291
              }
            }
          }
        }
      }
    }
  }
  JOINT LeftUpLeg
  {
    OFFSET 8.9458 -8.66707 0.101652
    CHANNELS 3 Zrotation Xrotation Yrotation
    JOINT LeftLeg
    {
      OFFSET 0 -44.4227 1.3727
      CHANNELS 3 Zrotation Xrotation Yrotation
      JOINT LeftFoot
      {
        OFFSET -0.253549 -42.0924 -1.46059
        CHANNELS 3 Zrotation Xrotation Yrotation
        JOINT LeftToes
        {
          OFFSET -0.04 -4.41509 8.4991
          CHANNELS 3 Zrotation Xrotation Yrotation
          End Site
          {
            OFFSET 0.08 -0.047448 9.77979
          }
        }
      }
    }
  }
}
MOTION
Frames:	10
Frame Time:	0.0166667
-68.0389 97.395 -23.6479 1.75186 -0.207628 122.329 -16.4144 -33.1272 -1.40925 4.3617 39.1083 7.49556 16.1307 -4.77654 0.0145677 0.0462048 0.000533403 0.662642 4.74929 8.38822 -2.63771 2.10133 15.9429 -4.43816 12.7862 -14.8765 -14.6468 8.82781e-032 1.59028e-015 -3.18055e-015 -83.368 -11.6505 -29.9684 -43.0226 62.3059 -83.9338 7.21815 19.4659 -2.26649 26.5946 -4.06426 -16.5839 70.4658 -36.0956 36.1715 -17.2004 54.0111 145.894 -5.83295 20.6161 -23.0773 18.6673 -12.9596 -2.17205 -25.7236 46.5081 6.24065 -25.5467 24.9689 7.68561 -1.32165e-009 1.56054e-007 -4.85415e-009 
-67.5381 97.1565 -22.5884 2.2827 -1.03372 121.785 -16.9385 -33.5164 -2.45149 6.20967 39.3535 9.14838 19.8443 -5.61748 0.205189 0.0462048 0.000533403 0.662642 4.39649 8.21004 -3.00054 2.31143 15.6081 -5.15243 13.0769 -13.2122 -13.4297 1.59028e-015 7.95139e-016 -6.36111e-015 -84.7584 -12.6217 -31.7335 -44.1063 62.6542 -83.0199 7.21815 19.4659 -2.26649 27.0058 -4.36023 -17.402 69.8557 -35.5263 34.7474 -16.879 54.1668 144.993 -8.01239 20.8544 -21.454 17.7191 -11.6612 -3.24383 -25.8434 45.9025 7.5824 -24.3107 25.0686 7.29717 -1.32165e-009 1.56054e-007 -4.85415e-009 
-67.2677 96.7449 -21.5952 2.43772 -1.83621 121.232 -18.0301 -34.4916 -3.34251 8.13397 39.8133 9.88968 22.9873 -5.39995 0.205281 0.0462048 0.000533403 0.662642 4.00929 7.9637 -3.35049 2.48035 15.1644 -5.86635 13.3177 -11.4184 -12.1425 1.59028e-015 -3.18055e-015 -3.18055e-015 -86.1403 -13.769 -33.636 -45.1545 62.9147 -82.0795 7.21815 19.4659 -2.26649 27.1963 -4.52829 -17.8783 69.6534 -35.2782 33.7215 -16.4425 54.4003 144.173 -10.2202 21.0262 -19.6813 16.6723 -11.1676 -4.22432 -25.6766 45.5603 9.95627 -21.4854 25.5009 6.48459 -1.32166e-009 1.56054e-007 -4.85415e-009 
-67.2234 96.1645 -20.6798 2.23669 -2.52844 120.714 -19.7737 -36.0331 -4.08714 10.122 40.8405 9.1533 25.1279 -4.47994 0.0226931 0.0462048 0.000533403 0.662642 3.7199 7.67735 -3.63271 2.59857 14.6327 -6.44712 13.4052 -9.62935 -11.0218 1.54487e-031 2.78299e-015 -3.18055e-015 -87.3768 -14.9124 -35.4429 -45.9776 63.0728 -81.3239 7.21815 19.4659 -2.26649 27.2123 -4.59983 -18.1133 69.8711 -35.4428 33.2649 -16.0367 54.6259 143.76 -12.1829 21.1219 -18.0717 15.5899 -11.5812 -4.90826 -25.45 45.8041 13.2328 -17.4359 26.3273 5.3593 -1.32164e-009 1.56054e-007 -4.85416e-009 
-67.3886 95.422 -19.8432 1.70475 -3.00639 120.274 -22.2522 -37.9787 -4.70271 12.0779 42.5394 6.59818 26.1064 -3.12371 -0.276675 0.0462048 0.000533403 0.662642 3.58944 7.3783 -3.78963 2.65022 14.0462 -6.76453 13.2851 -7.99386 -10.2806 7.95139e-016 2.78299e-015 -0 -88.357 -15.9016 -36.9114 -46.4695 63.1506 -80.9109 7.21815 19.4659 -2.26649 27.1223 -4.62304 -18.24 70.5523 -36.0915 33.5555 -15.8024 54.7851 144.037 -13.7195 21.1686 -16.8836 14.5353 -12.8905 -5.15911 -25.4186 46.7113 17.1796 -12.7259 27.7096 4.08949 -1.32165e-009 1.56054e-007 -4.85415e-009 
-67.7345 94.5222 -19.0919 0.882295 -3.18617 119.934 -25.3897 -40.0544 -5.11313 13.7492 44.7187 2.34971 25.942 -1.43432 -0.635164 0.0462048 0.000533403 0.662642 3.62897 7.08835 -3.77968 2.63203 13.4432 -6.72776 12.9531 -6.62065 -10.0531 -1.32417e-031 2.38542e-015 3.18055e-015 -89.0054 -16.6755 -37.8272 -46.6403 63.1992 -80.9028 7.21815 19.4659 -2.26649 26.9898 -4.64064 -18.3711 71.7584 -37.2073 34.7576 -15.8408 54.8145 145.161 -14.7179 21.2058 -16.3089 13.5723 -14.9695 -4.91849 -25.797 48.1684 21.5291 -7.9608 29.8341 2.82624 -1.32165e-009 1.56054e-007 -4.85415e-009 
-68.215 93.4583 -18.4409 -0.174945 -3.03453 119.678 -28.8486 -41.9572 -5.0892 14.6999 46.9504 -2.74005 24.7631 0.661939 -1.04392 0.0462048 0.000533403 0.662642 3.81668 6.81935 -3.59002 2.56949 12.8576 -6.31309 12.4378 -5.54476 -10.3631 6.62086e-032 -1.19271e-015 3.18055e-015 -89.2755 -17.2878 -38.0371 -46.5756 63.2804 -81.2912 7.21815 19.4659 -2.26649 26.8519 -4.67532 -18.565 73.544 -38.6165 36.9981 -16.1851 54.6128 147.093 -15.1062 21.2631 -16.4672 12.7436 -17.6156 -4.18631 -26.7136 50.0347 26.0604 -3.61754 32.6882 1.65358 -1.32165e-009 1.56054e-007 -4.85415e-009 
-68.7012 92.1611 -17.8786 -1.40535 -2.55369 119.417 -32.1178 -43.5082 -4.35772 14.4673 48.8575 -7.12268 22.8234 3.30924 -1.51592 0.0462048 0.000533403 0.662642 4.07358 6.56036 -3.19622 2.52063 12.3063 -5.57546 11.7877 -4.73131 -11.1185 -7.95139e-016 -7.95139e-016 -3.18055e-015 -89.1358 -17.8886 -37.4657 -46.3606 63.4458 -82.0545 7.21815 19.4659 -2.26649 26.7072 -4.72437 -18.8138 75.8971 -39.9652 40.3069 -16.7955 54.0247 149.576 -14.8507 21.3439 -17.3787 12.0593 -20.5959 -3.02418 -28.2789 52.3424 30.6721 -0.0855042 35.8384 0.655827 -1.32165e-009 1.56054e-007 -4.85415e-009 
-69.1996 90.6567 -17.3983 -2.75016 -1.82876 119.151 -34.7604 -44.3741 -2.72647 12.6578 49.6161 -9.29622 20.8241 6.90743 -2.1499 0.0462048 0.000533403 0.662642 4.29734 6.30712 -2.72322 2.54835 11.8039 -4.64456 11.0672 -4.11349 -12.1317 1.59028e-015 7.95139e-016 -3.18055e-015 -88.5586 -18.6693 -36.1135 -46.0244 63.718 -83.1877 7.21815 19.4659 -2.26649 26.5163 -4.75984 -19.0439 78.6484 -40.8066 44.5082 -17.5921 52.8696 152.175 -13.9799 21.4205 -18.9346 11.4556 -23.7664 -1.54948 -30.4426 55.0306 35.1888 2.4808 38.8457 -0.0759933 -1.32165e-009 1.56054e-007 -4.85415e-009 
-69.6694 88.9463 -16.9624 -4.15072 -0.975618 118.812 -36.6799 -44.4613 -0.406251 9.51751 48.9114 -8.71222 19.6217 11.3506 -2.99424 0.0462048 0.000533403 0.662642 4.37891 6.06504 -2.25213 2.7103 11.3655 -3.69584 10.3523 -3.64113 -13.1623 -7.95139e-016 -1.59028e-015 -3.18055e-015 -87.5281 -19.7842 -34.0487 -45.5368 64.0792 -84.6913 7.21815 19.4659 -2.26649 26.2143 -4.73509 -19.1301 81.4486 -40.8174 49.1618 -18.5165 51.0401 154.423 -12.6095 21.4493 -20.9029 10.8676 -27.0312 0.0356436 -33.1669 58.0988 39.4631 3.86037 41.258 -0.380164 -1.32165e-009 1.56054e-007 -4.85415e-009 
